<?xml version="1.0" encoding="utf-8"?>
<!-- Generator: Adobe Illustrator 19.2.1, SVG Export Plug-In . SVG Version: 6.00 Build 0)  -->
<svg version="1.1" id="Calque_1" xmlns="http://www.w3.org/2000/svg" xmlns:xlink="http://www.w3.org/1999/xlink" x="0px" y="0px"
	 viewBox="0 0 48 48" style="enable-background:new 0 0 48 48;" xml:space="preserve">
<style type="text/css">
	.st0{fill:none;}
</style>
<path class="st0" d="M0,0h48v48H0V0z"/>
<path d="M34.4,18L25.7,4.9C25.3,4.3,24.6,4,24,4s-1.3,0.3-1.7,0.8L13.6,18H4c-1.1,0-2,0.9-2,2c0,0.2,0,0.4,0.1,0.5L7.2,39
	c0.5,1.7,2,2.9,3.9,2.9h26c1.8,0,3.4-1.2,3.8-2.9L46,20.5c0-0.2,0.1-0.3,0.1-0.5c0-1.1-0.9-2-2-2C44,18,34.4,18,34.4,18z M18,18
	l6-8.8l6,8.8H18z M24,34c-2.2,0-4-1.8-4-4s1.8-4,4-4s4,1.8,4,4S26.2,34,24,34z"/>
</svg>
