<?xml version="1.0" encoding="utf-8"?>
<!-- Generator: Adobe Illustrator 19.2.1, SVG Export Plug-In . SVG Version: 6.00 Build 0)  -->
<svg version="1.1" id="Calque_1" xmlns="http://www.w3.org/2000/svg" xmlns:xlink="http://www.w3.org/1999/xlink" x="0px" y="0px"
	 viewBox="0 0 24 24" style="enable-background:new 0 0 24 24;" xml:space="preserve">
<g id="miu">
	<g id="Artboard-1" transform="translate(-539.000000, -407.000000)">
		<g id="slice" transform="translate(215.000000, 119.000000)">
		</g>
		<path id="common-search-lookup-glyph" d="M555.5,421.4c1-1.4,1.5-3.1,1.5-4.9c0-4.7-3.8-8.5-8.5-8.5s-8.5,3.8-8.5,8.5
			s3.8,8.5,8.5,8.5c1.8,0,3.5-0.6,4.9-1.5l0,0l6.3,6.3c0.1,0.1,0.3,0.1,0.4,0l1.7-1.7c0.1-0.1,0.1-0.3,0-0.4L555.5,421.4z
			 M548.5,423c3.6,0,6.5-2.9,6.5-6.5s-2.9-6.5-6.5-6.5s-6.5,2.9-6.5,6.5S544.9,423,548.5,423z"/>
	</g>
</g>
</svg>
